<svg width="8" height="18" viewBox="0 0 8 18" fill="none" xmlns="http://www.w3.org/2000/svg">
<path fill-rule="evenodd" clip-rule="evenodd" d="M1.76263 9.07097V17.7733C1.76263 17.8988 1.86 18 1.97947 18H5.07105C5.19105 18 5.28789 17.8988 5.28789 17.7733V8.92903H7.52947C7.64211 8.92903 7.73632 8.83935 7.74526 8.72162L7.96105 6.05667C7.97211 5.92463 7.87158 5.8113 7.74474 5.8113H5.28789V3.92041C5.28789 3.47754 5.63211 3.11828 6.05579 3.11828H7.78263C7.90263 3.11828 8 3.0165 8 2.89162V0.226664C8 0.101779 7.90263 0 7.78263 0H4.86421C3.15158 0 1.76263 1.45131 1.76263 3.24207V5.8113H0.216842C0.0973684 5.8113 0 5.91253 0 6.03796V8.70292C0 8.8278 0.0973684 8.92903 0.216842 8.92903H1.76263V9.07097Z" fill="white"/>
</svg>
