<svg width="16" height="11" viewBox="0 0 16 11" fill="none" xmlns="http://www.w3.org/2000/svg">
<path fill-rule="evenodd" clip-rule="evenodd" d="M0.256537 11H3.21658C3.35809 11 3.47311 10.8817 3.47311 10.7361V0.516105C3.47311 0.370552 3.35809 0.252254 3.21658 0.252254H0.256537C0.115019 0.252254 0 0.370552 0 0.516105V10.7361C0 10.8817 0.115019 11 0.256537 11ZM16 4.83689V10.7361C16 10.8817 15.8855 11 15.7435 11H12.7823C12.6408 11 12.5258 10.8817 12.5258 10.7361V5.2492C12.5258 3.80584 12.024 2.82002 10.7661 2.82002C9.80591 2.82002 9.23589 3.48342 8.98386 4.12594C8.89252 4.35616 8.86884 4.6751 8.86884 4.99694V10.7356C8.86884 10.8817 8.75382 11 8.6123 11H5.6517C5.50962 11 5.3946 10.8817 5.39516 10.7356C5.40193 9.27482 5.43238 2.18562 5.40137 0.519585C5.39911 0.371712 5.51469 0.252254 5.6579 0.252254H8.6123C8.75382 0.252254 8.86884 0.370552 8.86884 0.516105V1.77505C8.86208 1.78723 8.85249 1.79883 8.84573 1.81043H8.86884V1.77505C9.33117 1.04439 10.1543 0 12.0003 0C14.2866 0 16 1.53614 16 4.83689Z" fill="white"/>
</svg>
