<svg width="18" height="15" viewBox="0 0 18 15" fill="none" xmlns="http://www.w3.org/2000/svg">
<path fill-rule="evenodd" clip-rule="evenodd" d="M17.9325 1.7978C17.3605 2.06 16.7313 2.21857 16.1139 2.32334C16.407 2.27353 16.8388 1.73712 17.0113 1.52015C17.275 1.18925 17.494 0.811986 17.6168 0.404379C17.6332 0.372893 17.6445 0.332819 17.6134 0.308775C17.5738 0.292745 17.5483 0.30076 17.5172 0.31679C16.828 0.690048 16.1156 0.961404 15.3574 1.15319C15.2946 1.16864 15.2482 1.15319 15.2086 1.11311C15.1452 1.04155 15.0864 0.973998 15.0196 0.917895C14.701 0.643104 14.3593 0.427851 13.9734 0.269274C13.4669 0.0603178 12.9141 -0.0278443 12.3686 0.00764952C11.8379 0.0425709 11.3173 0.193706 10.8465 0.442735C10.3746 0.692337 9.95307 1.03926 9.61866 1.45775C9.27124 1.89054 9.01548 2.40177 8.88477 2.94391C8.75802 3.46716 8.76877 3.98411 8.84573 4.51308C8.85761 4.60067 8.84969 4.61269 8.7716 4.60067C5.80491 4.15413 3.34634 3.08016 1.34949 0.778782C1.26292 0.678598 1.21596 0.678598 1.14523 0.786224C0.27157 2.11095 0.695384 4.23943 1.78689 5.28536C1.93231 5.42447 2.08112 5.56416 2.24239 5.69125C2.18411 5.70327 1.45813 5.62369 0.810815 5.28536C0.724241 5.22983 0.680672 5.26131 0.67275 5.36092C0.664828 5.50404 0.677277 5.63572 0.696515 5.79143C0.864004 7.1339 1.78293 8.37618 3.04192 8.8605C3.1913 8.92405 3.35652 8.98015 3.51722 9.00763C3.23091 9.07118 2.93554 9.11697 2.11281 9.05171C2.01039 9.03168 1.97135 9.08377 2.01039 9.18281C2.62886 10.8871 3.9631 11.3943 4.96181 11.6834C5.09535 11.7069 5.22945 11.7069 5.36355 11.7389C5.35507 11.751 5.34771 11.751 5.33979 11.763C5.00821 12.2736 3.85956 12.6543 3.32484 12.8433C2.35159 13.1879 1.29178 13.3425 0.263083 13.24C0.0984236 13.2154 0.0644732 13.2171 0.019772 13.24C-0.0254952 13.268 0.0141136 13.3075 0.0667366 13.351C0.275531 13.4907 0.487721 13.6144 0.704437 13.7335C1.35742 14.0838 2.03812 14.3626 2.75051 14.5613C6.42733 15.5889 10.5693 14.8338 13.3306 12.0584C15.4989 9.87895 16.2588 6.87342 16.2588 3.86388C16.2588 3.74595 16.3963 3.68126 16.4783 3.61886C17.0425 3.19007 17.4906 2.67713 17.911 2.10408C18.0061 1.97527 17.9999 1.86077 17.9999 1.81383V1.7978C17.9999 1.74971 18.0061 1.76402 17.9325 1.7978Z" fill="white"/>
</svg>
